<svg xmlns="http://www.w3.org/2000/svg" width="207" height="213.34948433143052" viewBox="0 0 207 213.34948433143052" class="editor-view__logo-preview" data-v-719f541d="" data-v-75053935=""><svg id="mark" viewBox="0 0 456 730" width="100" height="160.08771929824562" x="53.5" y="0" data-v-719f541d="" style="fill: rgb(0, 0, 0);"><rect x="0" y="0" width="100%" height="100%" fill="none" data-v-719f541d=""></rect><g data-v-719f541d="">
	<path xmlns="http://www.w3.org/2000/svg" d="M 222.607 15.250 C 216.448 26.035, 193.543 72.312, 187.095 87 C 182.116 98.343, 174.601 120.588, 167.501 145 C 160.921 167.626, 155.661 175.307, 133.715 194.334 C 126.867 200.272, 126.165 202, 130.601 202 C 135.002 202, 148.292 205.108, 152.017 207.009 C 158.184 210.155, 158.603 211.295, 155.525 216.547 C 154.047 219.070, 153.056 221.704, 153.323 222.400 C 153.591 223.097, 158.433 226.745, 164.085 230.508 C 190.560 248.133, 206.951 271.245, 209.958 295.192 C 210.643 300.646, 211.420 302.829, 213.420 304.917 C 216.522 308.155, 216.550 308.450, 214 311 C 211.382 313.618, 211.483 315.645, 214.474 320.500 L 216.938 324.500 216.969 490.904 L 217 657.308 212.891 660.825 C 208.652 664.454, 205 671.306, 205 675.633 C 205 680.538, 210.764 687.838, 215.932 689.478 C 217.805 690.073, 217.787 690.226, 215.438 693.687 C 211.861 698.958, 212.075 705.424, 216.007 710.852 C 218.608 714.442, 218.845 715.275, 217.759 717.014 C 216.730 718.662, 216.780 719.519, 218.037 721.762 C 219.516 724.402, 219.905 724.510, 228.886 724.789 C 240.266 725.142, 241.432 724.475, 240.686 718.039 C 240.240 714.185, 240.528 713.111, 242.600 710.925 C 246.066 707.266, 247.031 703.131, 245.476 698.607 C 244.769 696.550, 243.464 694.065, 242.575 693.083 C 241.066 691.415, 241.227 691.115, 245.056 688.461 C 255.232 681.409, 255.596 668.946, 245.870 660.621 L 242 657.308 242 490.289 C 242 324.784, 242.018 323.247, 244 320.727 C 246.265 317.847, 246.607 313.785, 244.750 311.821 C 243.154 310.135, 243.147 307.726, 244.734 306.709 C 246.249 305.738, 249.362 295.395, 248.539 294.064 C 247.558 292.476, 251.815 281.117, 257.161 271.057 C 266.191 254.067, 275.107 244.473, 293.512 231.945 C 299.282 228.018, 304.226 224.444, 304.498 224.003 C 304.770 223.563, 304.104 221.244, 303.018 218.851 C 299.990 212.178, 300.337 209.542, 304.505 207.565 C 310.121 204.899, 316.864 203.135, 324.184 202.413 C 327.933 202.044, 331 201.372, 331 200.921 C 331 200.469, 327.288 196.987, 322.750 193.184 C 306.704 179.732, 298.197 169.074, 293.460 156.489 C 292.134 152.966, 288.983 142.078, 286.457 132.292 C 278.099 99.903, 274.444 91, 250.702 45.199 C 233.533 12.076, 230.602 7, 228.647 7 C 227.917 7, 225.199 10.713, 222.607 15.250 M 228.510 22.983 C 228.089 23.666, 228.201 24.511, 228.761 24.862 C 229.320 25.213, 230.254 27.235, 230.837 29.355 C 231.420 31.475, 233.720 36.279, 235.948 40.030 C 238.177 43.781, 240 47.127, 240 47.467 C 240 47.806, 238.704 50.877, 237.119 54.292 C 233.247 62.638, 233.080 66.179, 232.867 144.500 C 232.587 247.196, 232.880 283, 234 283 C 234.608 283, 235 278.552, 235 271.657 C 235 259.233, 235.610 256.765, 242.769 240.244 C 248.681 226.599, 253.807 218.611, 263.410 208.078 C 268.134 202.897, 272 198.322, 272 197.913 C 272 196.634, 284.211 187.922, 290.345 184.826 C 293.566 183.200, 296.023 181.690, 295.805 181.471 C 295.188 180.855, 285.842 183.507, 281.696 185.474 C 276.060 188.149, 260.524 205.054, 252.284 217.479 C 247.216 225.122, 240.964 237.855, 237.299 248 L 234.950 254.500 235.379 242.500 C 235.722 232.899, 236.300 229.198, 238.270 223.987 C 245.163 205.754, 253.199 193.761, 267.322 180.630 C 278.217 170.501, 286.017 161.076, 285.980 158.087 C 285.969 157.126, 284.540 158.194, 282.358 160.798 C 280.376 163.161, 276.447 167.191, 273.627 169.753 C 255.197 186.493, 246.186 198.256, 238.819 215.188 C 236.491 220.540, 234.566 224.825, 234.543 224.710 C 234.519 224.594, 234.725 193.225, 235 155 L 235.500 85.500 244.250 76.676 C 252.446 68.411, 254.227 66, 252.133 66 C 251.656 66, 247.826 69.600, 243.622 74 C 239.418 78.400, 235.759 82, 235.490 82 C 234.597 82, 234.994 68.562, 235.993 64.965 C 236.533 63.021, 238.262 59.402, 239.835 56.922 C 243.870 50.559, 243.065 45.298, 236.326 34 C 233.537 29.325, 230.811 24.655, 230.266 23.622 C 229.539 22.241, 229.074 22.072, 228.510 22.983 M 224.500 31.101 C 215.658 46.050, 215.320 48.053, 220.181 56.668 C 223.186 61.992, 223.361 62.866, 223.322 72.402 C 223.299 77.956, 223.223 113.545, 223.152 151.489 C 223.011 227.590, 223.335 224.531, 217.100 208.470 C 213.262 198.582, 206.188 189.054, 196.168 180.275 C 191.951 176.580, 184.836 169.922, 180.359 165.480 C 175.881 161.037, 172.465 158.100, 172.767 158.951 C 174.104 162.720, 180.743 170.469, 188.302 177.083 C 199.105 186.537, 207.962 197.443, 213.774 208.448 C 222.820 225.575, 222.904 225.878, 222.934 241.500 L 222.961 255.500 219.968 247 C 215.777 235.097, 211.060 225.487, 204.921 216.344 C 197.591 205.428, 185.395 190.385, 181.640 187.630 C 177.972 184.938, 171.799 182, 169.810 182 C 169.047 182, 166.753 181.149, 164.711 180.108 C 162.670 179.067, 161 178.594, 161 179.057 C 161 179.520, 164.607 181.775, 169.016 184.069 C 174.687 187.020, 178.416 189.829, 181.766 193.673 C 184.370 196.662, 189.478 202.421, 193.118 206.471 C 202.041 216.399, 208.466 226.297, 213.498 237.866 C 215.802 243.165, 218.850 249.975, 220.270 253 C 222.196 257.102, 222.990 260.742, 223.394 267.322 C 224.033 277.720, 224.917 283, 226.018 283 C 226.455 283, 226.650 282.213, 226.450 281.250 C 226.251 280.288, 225.861 231.350, 225.584 172.500 C 225.064 61.808, 225.072 62.011, 220.888 53.790 C 217.989 48.093, 218.453 44.641, 222.917 38.707 C 225.072 35.843, 227.147 31.813, 227.528 29.750 C 227.910 27.688, 228.060 26.006, 227.861 26.014 C 227.663 26.022, 226.150 28.311, 224.500 31.101 M 119.113 56.088 C 59.566 73.749, 16.635 120.397, 6.455 178.500 C 4.059 192.174, 4.038 218.883, 6.411 232.500 C 8.606 245.093, 14.692 263.587, 20.632 275.717 C 38.721 312.656, 71.950 342.573, 108 354.375 C 121.984 358.954, 124.955 358.723, 116.094 353.746 C 103.737 346.806, 81.422 329.492, 69.885 317.893 C 39.661 287.506, 22.807 245.970, 22.861 202 C 22.893 176.109, 27.670 154.748, 38.105 133.842 C 49.536 110.940, 72.962 86.588, 98.465 71.094 C 102.172 68.842, 105.359 67, 105.549 67 C 105.738 67, 108.504 65.481, 111.696 63.624 C 114.888 61.767, 120.875 58.792, 125 57.014 C 132.151 53.930, 135.566 51.928, 133.450 52.059 C 132.928 52.091, 126.476 53.904, 119.113 56.088 M 329.807 56.458 C 340.389 60.817, 353.203 67.699, 363.872 74.753 C 408.552 104.296, 433.389 149.285, 433.294 200.500 C 433.251 223.561, 429.110 244.497, 420.608 264.639 C 406.431 298.226, 384.666 323.105, 345.594 350.385 C 339.596 354.573, 335.410 358, 336.293 358 C 339.774 358, 355.002 352.540, 364.089 348.033 C 384.836 337.745, 401.152 324.114, 417.398 303.500 C 433.470 283.106, 444.960 257.164, 449.493 231.038 C 451.325 220.481, 451.566 196.124, 449.954 184.500 C 442.874 133.449, 414.449 93.135, 367.848 68.051 C 358.808 63.185, 347.980 59.112, 334.666 55.570 C 321.520 52.072, 319.884 52.371, 329.807 56.458 M 210.115 61 C 210.069 62.375, 210.467 64.175, 211 65 C 211.862 66.333, 211.960 66.333, 211.885 65 C 211.839 64.175, 211.440 62.375, 211 61 L 210.199 58.500 210.115 61 M 246.655 63.500 C 244.761 69.057, 245.307 69.279, 247.980 64.040 C 250.252 59.585, 250.382 59, 249.094 59 C 248.596 59, 247.498 61.025, 246.655 63.500 M 205.004 62.522 C 205.015 65.544, 216.146 79.667, 218.516 79.667 C 220.657 79.667, 220.420 78.916, 216.298 72.657 C 214.244 69.538, 212.303 67.509, 211.938 68.100 C 211.552 68.725, 209.984 67.591, 208.140 65.354 C 206.413 63.259, 205.002 61.984, 205.004 62.522 M 202 76.650 C 202 77.558, 205.526 81.720, 209.837 85.900 C 214.147 90.080, 218.425 94.625, 219.344 96 C 220.934 98.379, 220.941 98.310, 219.486 94.577 C 218.645 92.419, 217.404 89.981, 216.729 89.158 C 215.101 87.178, 202.695 75, 202.305 75 C 202.137 75, 202 75.743, 202 76.650 M 216 77 C 216.589 78.100, 217.295 79, 217.570 79 C 217.845 79, 217.589 78.100, 217 77 C 216.411 75.900, 215.705 75, 215.430 75 C 215.155 75, 215.411 75.900, 216 77 M 254.464 78.387 C 252.221 79.958, 240.526 95.859, 241.153 96.486 C 241.377 96.710, 243.455 94.445, 245.771 91.452 C 248.087 88.458, 252.237 84.390, 254.992 82.410 C 257.747 80.431, 259.750 78.404, 259.442 77.906 C 258.638 76.605, 256.747 76.788, 254.464 78.387 M 258.485 88.250 C 253.116 92.644, 250.553 95.664, 247.663 101 C 244.045 107.682, 243.389 111.288, 246.845 105.500 C 248.487 102.750, 253.019 97.362, 256.915 93.527 C 260.812 89.692, 264 86.204, 264 85.777 C 264 84.310, 262.449 85.005, 258.485 88.250 M 201.688 91.250 C 206.719 96.408, 213.337 108.099, 215.982 116.500 C 217.773 122.187, 219.324 123.447, 218.445 118.500 C 216.546 107.810, 207.787 91.886, 201.756 88.158 C 196.206 84.728, 196.186 85.608, 201.688 91.250 M 93.272 95.523 C 83.201 103.580, 75.713 111.808, 67.866 123.439 C 56.626 140.099, 49.927 156.711, 46.468 176.500 C 44.052 190.320, 44.023 218.159, 46.412 230.500 C 48.549 241.538, 54.057 258.819, 58.654 268.908 C 62.954 278.342, 73.277 293.751, 80.215 301.089 C 100.231 322.259, 126.768 333.643, 147.746 330.059 C 151.732 329.378, 155.231 328.435, 155.522 327.965 C 155.813 327.494, 151.876 325.106, 146.775 322.657 C 113.030 306.461, 82.666 266.751, 71.720 224.500 C 67.604 208.612, 66.548 199.706, 66.620 181.500 C 66.765 145.027, 75.686 119.480, 96.739 95.250 C 99.725 91.813, 102.001 89, 101.797 89 C 101.592 89, 97.755 91.935, 93.272 95.523 M 359.169 93.750 C 365.418 100.431, 375.627 115.917, 380.060 125.442 C 387.560 141.553, 391 158.292, 391 178.670 C 391 216.143, 382.494 245.499, 363.324 274.188 C 348.030 297.076, 330.399 313.448, 311 322.773 L 301.500 327.340 305 328.821 C 310.354 331.086, 325.884 330.747, 334.314 328.180 C 348.243 323.938, 365.342 312.803, 376.900 300.448 C 406.624 268.673, 419.985 209.983, 408.041 163.660 C 400.563 134.655, 386.278 112.578, 363.050 94.124 C 359.503 91.306, 356.179 89, 355.663 89 C 355.148 89, 356.726 91.138, 359.169 93.750 M 193 91.356 C 193 91.552, 195.475 93.563, 198.500 95.825 C 204.297 100.161, 205.905 100.151, 201.250 95.809 C 197.816 92.606, 193 90.007, 193 91.356 M 260.332 98.936 C 252.265 102.599, 245.375 111.785, 240.868 124.884 C 238.231 132.549, 238.638 133.753, 241.376 126.388 C 246.172 113.486, 251.790 106.144, 260.061 101.969 C 268.928 97.493, 269.158 94.929, 260.332 98.936 M 191.500 100.575 C 192.600 101.406, 193.321 102.404, 193.101 102.793 C 192.882 103.182, 195.108 104.736, 198.049 106.246 C 200.990 107.756, 204.985 110.456, 206.927 112.246 C 209.430 114.553, 209.891 114.772, 208.513 113 C 201.689 104.226, 195.203 98.963, 191.300 99.032 C 189.652 99.061, 189.668 99.191, 191.500 100.575 M 259.193 121 C 253.524 126.775, 247.988 132.850, 246.892 134.500 C 243.020 140.326, 239.886 147.190, 240.191 149.176 C 240.433 150.753, 241.403 149.901, 244.692 145.223 C 246.998 141.944, 253.125 134.782, 258.307 129.307 C 266.785 120.350, 270.968 113.793, 269.830 111.241 C 269.649 110.834, 264.862 115.225, 259.193 121 M 188.731 113.081 C 189.031 114.226, 192.701 118.872, 196.888 123.406 C 201.075 127.939, 207.180 135.085, 210.456 139.285 C 213.732 143.485, 216.563 146.770, 216.748 146.585 C 218.076 145.257, 209.790 129.969, 203.642 122.403 C 196.406 113.499, 187.362 107.845, 188.731 113.081 M 273.269 129.252 C 271.582 131.588, 264.868 138.900, 258.348 145.500 C 248.572 155.397, 245.750 158.960, 242.247 165.828 C 238.009 174.138, 236.095 181.042, 240.125 173.485 C 245.194 163.978, 250.173 157.732, 262.108 145.908 C 271.856 136.251, 275.067 132.418, 275.882 129.464 C 276.467 127.346, 276.809 125.475, 276.641 125.308 C 276.474 125.140, 274.956 126.915, 273.269 129.252 M 183 129.850 C 183 131.947, 189.575 139.444, 195.204 143.764 C 205.874 151.953, 207.975 154.097, 213.221 162.151 C 216.033 166.468, 218.482 169.852, 218.663 169.670 C 218.845 169.489, 218.305 167.021, 217.463 164.187 C 215.802 158.594, 212.173 154.543, 193.779 137.750 C 184.358 129.149, 183 128.154, 183 129.850 M 176 139.885 C 176 140.782, 179.005 142.328, 179.598 141.736 C 179.769 141.564, 179.030 140.875, 177.955 140.204 C 176.880 139.532, 176 139.389, 176 139.885 M 278.813 141.683 C 279.534 141.972, 280.397 141.936, 280.729 141.604 C 281.061 141.272, 280.471 141.036, 279.417 141.079 C 278.252 141.127, 278.015 141.364, 278.813 141.683 M 280.850 144.569 C 280.538 145.707, 278.643 147.395, 276.641 148.319 C 274.638 149.244, 271.472 150.704, 269.605 151.564 C 264.436 153.946, 258.360 159.579, 253.937 166.092 C 249 173.363, 239.984 190.772, 240.046 192.915 C 240.071 193.787, 241.344 191.800, 242.875 188.500 C 246.894 179.836, 255.568 166.114, 259.829 161.680 C 261.848 159.579, 267.167 155.855, 271.649 153.404 C 280.652 148.481, 282.345 146.962, 281.792 144.298 C 281.463 142.711, 281.352 142.743, 280.850 144.569 M 180.436 149.929 C 181.471 151.073, 183.960 152.451, 185.968 152.991 C 191.018 154.351, 198.361 159.406, 202.047 164.060 C 203.745 166.203, 208.254 174.079, 212.067 181.561 C 215.880 189.043, 219 194.759, 219 194.264 C 219 193.768, 218.286 190.919, 217.413 187.932 C 214.924 179.411, 207.409 166.510, 200.849 159.498 C 194.972 153.215, 190.624 150.755, 181.527 148.565 C 178.570 147.854, 178.564 147.861, 180.436 149.929 M 198.496 165.843 C 199.586 167.131, 201.383 168.649, 202.489 169.215 C 204.613 170.303, 204.303 169.967, 199.507 165.985 C 196.620 163.588, 196.584 163.583, 198.496 165.843 M 157 185.255 C 157 185.517, 159.663 186.703, 162.919 187.890 C 166.459 189.181, 170.879 191.884, 173.919 194.617 C 176.713 197.129, 179 198.624, 179 197.938 C 179 196.151, 171.919 189.662, 167.905 187.770 C 164.392 186.115, 157 184.410, 157 185.255 M 291.500 189.428 C 288.750 190.699, 285.150 193.240, 283.500 195.074 L 280.500 198.409 284.221 195.676 C 286.267 194.172, 290.767 191.606, 294.221 189.972 C 297.674 188.338, 299.600 187.027, 298.500 187.058 C 297.400 187.090, 294.250 188.156, 291.500 189.428 M 145.500 195.760 C 146.050 196.307, 148.975 197.551, 152 198.525 C 163.879 202.351, 168.038 205.093, 180.996 217.648 C 195.028 231.243, 202.445 240.657, 211.750 256.683 C 218.848 268.908, 220.177 268.310, 213.732 255.791 C 208.354 245.346, 201.335 235.471, 193.004 226.629 C 184.801 217.923, 164.432 200.714, 158.948 197.856 C 154.646 195.614, 143.626 193.896, 145.500 195.760 M 301.057 196.302 C 299.163 196.906, 294.663 200.182, 291.057 203.581 C 287.450 206.981, 280.921 212.629, 276.547 216.131 C 262.637 227.270, 249.636 244.548, 243.630 259.875 C 240.917 266.801, 242.378 265.724, 246.476 257.778 C 255.288 240.691, 265.082 228.446, 281.893 213.500 C 293.412 203.258, 299.594 199.574, 308.051 197.910 C 311.302 197.271, 313.719 196.354, 313.422 195.874 C 312.692 194.692, 305.302 194.948, 301.057 196.302 M 282 224.744 C 262.131 242.553, 248.717 259.121, 244.033 271.642 C 242.915 274.630, 242.039 278.071, 242.086 279.288 C 242.166 281.358, 242.221 281.339, 242.938 279 C 244.096 275.225, 249.876 264.077, 253.308 259 C 256.677 254.016, 274.663 233.363, 278.840 229.682 C 282.373 226.568, 290.539 217.997, 289.958 218.011 C 289.706 218.017, 286.125 221.047, 282 224.744 M 184.825 234.558 C 203.088 252.003, 214.685 267.975, 218.076 280.351 C 219.652 286.102, 220.419 283.933, 218.977 277.804 C 215.946 264.923, 199.975 244.846, 180 228.807 C 173.757 223.794, 174.565 224.757, 184.825 234.558 M 228.230 287.010 C 222.049 287.922, 220.841 289.628, 225.785 290.464 C 230.695 291.293, 242 290.806, 242 289.765 C 242 289.344, 241.887 288.995, 241.750 288.989 C 241.613 288.983, 239.475 288.394, 237 287.679 C 234.379 286.922, 230.717 286.643, 228.230 287.010 M 220.725 296.736 C 213.394 297.313, 216.171 299, 224.452 299 C 230.221 299, 231.916 299.338, 232.394 300.584 C 233.635 303.819, 234.275 315.964, 233.271 317.227 C 232.601 318.069, 232.521 327.133, 233.033 344 C 233.689 365.584, 233.588 369.674, 232.377 370.630 C 231.148 371.601, 230.952 391.850, 230.986 514.497 C 231.008 593.002, 231.239 657.577, 231.498 657.997 C 231.758 658.417, 232.990 658.956, 234.235 659.194 L 236.500 659.627 236.245 523.064 C 236.104 447.954, 236.333 372.100, 236.754 354.500 C 237.478 324.180, 237.632 322.316, 239.677 319 C 241.645 315.808, 241.708 315.258, 240.386 312.750 C 239.532 311.130, 239.360 310, 239.968 310 C 241.684 310, 241.126 307.560, 239.125 306.310 C 236.228 304.501, 237.450 300.360, 241.096 299.631 C 244.559 298.938, 244.879 297.469, 241.750 296.630 C 239.448 296.013, 229.262 296.065, 220.725 296.736 M 226.648 347.184 C 226.306 348.458, 226.035 352.875, 226.045 357 C 226.061 363.867, 226.277 364.656, 228.600 366.348 C 229.995 367.365, 231.259 368.040, 231.408 367.848 C 231.557 367.657, 231.156 362.878, 230.518 357.229 C 229.333 346.745, 227.818 342.812, 226.648 347.184 M 217.500 665.713 C 216.400 665.978, 215.050 666.657, 214.500 667.222 C 213.818 667.924, 214.453 668.030, 216.500 667.556 C 218.150 667.173, 223.814 666.618, 229.087 666.321 C 236.642 665.895, 239.318 666.113, 241.711 667.350 C 244.989 669.046, 246.668 668.510, 244.869 666.342 C 244.039 665.342, 240.667 665.030, 231.628 665.116 C 224.957 665.180, 218.600 665.448, 217.500 665.713 M 236.460 669.635 C 238.429 674.453, 238.307 674.504, 224.750 674.440 C 214.875 674.393, 212 674.675, 212 675.690 C 212 677.489, 242.007 677.593, 243.800 675.800 C 246.370 673.230, 244.067 670.277, 238.099 668.489 C 236.031 667.869, 235.803 668.028, 236.460 669.635 M 224.269 683.693 C 225.242 683.947, 226.592 683.930, 227.269 683.656 C 227.946 683.382, 227.150 683.175, 225.500 683.195 C 223.850 683.215, 223.296 683.439, 224.269 683.693 M 233.250 684.728 C 235.313 684.944, 238.688 684.944, 240.750 684.728 C 242.813 684.513, 241.125 684.336, 237 684.336 C 232.875 684.336, 231.188 684.513, 233.250 684.728 M 228.750 688.662 C 229.438 688.940, 230.563 688.940, 231.250 688.662 C 231.938 688.385, 231.375 688.158, 230 688.158 C 228.625 688.158, 228.063 688.385, 228.750 688.662 M 233 696 C 230.585 698.415, 230.509 699.348, 232.586 701.072 C 233.652 701.956, 233.988 703.308, 233.611 705.194 C 233.148 707.511, 233.394 708, 235.025 708 C 240.252 708, 242.811 700.321, 238.961 696.189 C 236.445 693.488, 235.540 693.460, 233 696 M 220.011 699.487 C 218.558 701.237, 219.336 705.193, 221.573 707.430 C 223.586 709.443, 227.886 709.459, 228.655 707.457 C 229.422 705.457, 228.138 704.159, 227.083 705.866 C 226.638 706.586, 225.200 707.023, 223.887 706.837 C 222.102 706.585, 221.500 705.873, 221.500 704.014 C 221.500 700.900, 224.400 700.147, 227.074 702.567 C 229.650 704.899, 229.583 702.583, 227 700 C 224.632 697.632, 221.728 697.418, 220.011 699.487 M 228 716.211 C 226.075 717.193, 224.050 718.188, 223.500 718.422 C 221.200 719.401, 225.910 720.970, 231.191 720.985 C 238.763 721.005, 239.671 719.375, 234 715.939 C 231.737 714.568, 231.168 714.594, 228 716.211" stroke="none" fill="inherit" fill-rule="evenodd"></path>
</g></svg><svg id="name" viewBox="0 0 207.1840057373047 36.29399871826172" width="207" height="36.26176503318491" x="0" y="177.08771929824562" data-v-719f541d="" style="fill: rgb(0, 0, 0);"><rect x="0" y="0" width="100%" height="100%" fill="none" data-v-719f541d=""></rect><g data-v-719f541d=""><path xmlns="http://www.w3.org/2000/svg" d="M0 4.00L0 3.08Q1.15 3.13 3.10 3.17Q5.06 3.22 6.99 3.22L6.99 3.22Q9.20 3.22 11.27 3.17Q13.34 3.13 14.21 3.13L14.21 3.13Q20.61 3.13 23.78 5.66Q26.96 8.19 26.96 12.19L26.96 12.19Q26.96 13.85 26.31 15.66Q25.67 17.48 24.13 19.02Q22.59 20.56 19.92 21.53Q17.25 22.49 13.20 22.49L13.20 22.49L8.51 22.49L8.51 21.57L12.74 21.57Q15.46 21.57 16.86 20.33Q18.26 19.09 18.79 17.07Q19.32 15.04 19.32 12.70L19.32 12.70Q19.32 8.33 18.03 6.16Q16.74 4.00 13.62 4.00L13.62 4.00Q11.82 4.00 11.29 4.78Q10.76 5.57 10.76 7.96L10.76 7.96L10.76 30.50Q10.76 32.29 11.13 33.17Q11.50 34.04 12.56 34.32Q13.62 34.59 15.69 34.64L15.69 34.64L15.69 35.65Q14.26 35.60 12.01 35.56Q9.75 35.51 7.27 35.51L7.27 35.51Q5.29 35.51 3.40 35.56Q1.52 35.60 0 35.65L0 35.65L0 34.73Q1.47 34.64 2.21 34.36Q2.94 34.09 3.20 33.26Q3.45 32.43 3.45 30.77L3.45 30.77L3.45 7.96Q3.45 6.26 3.20 5.45Q2.94 4.65 2.19 4.35Q1.43 4.05 0 4.00L0 4.00ZM40.89 11.22L40.89 11.22Q44.94 11.22 47.24 13.62Q49.54 16.01 49.54 21.44L49.54 21.44L34.41 21.44L34.32 20.56L43.75 20.56Q43.79 18.31 43.47 16.40Q43.15 14.49 42.46 13.34Q41.77 12.19 40.62 12.19L40.62 12.19Q39.01 12.19 37.88 14.21Q36.75 16.24 36.52 20.93L36.52 20.93L36.66 21.21Q36.62 21.76 36.59 22.36Q36.57 22.95 36.57 23.60L36.57 23.60Q36.57 26.77 37.47 28.75Q38.36 30.73 39.74 31.63Q41.12 32.52 42.55 32.52L42.55 32.52Q43.52 32.52 44.55 32.22Q45.59 31.92 46.64 31.12Q47.70 30.31 48.62 28.84L48.62 28.84L49.45 29.12Q48.90 30.87 47.70 32.52Q46.51 34.18 44.67 35.24Q42.83 36.29 40.25 36.29L40.25 36.29Q37.12 36.29 34.73 34.96Q32.34 33.63 30.98 30.91Q29.62 28.20 29.62 24.01L29.62 24.01Q29.62 19.73 31.07 16.88Q32.52 14.03 35.08 12.63Q37.63 11.22 40.89 11.22ZM68.03 11.22L68.03 11.22Q69.51 11.22 70.43 11.84Q71.35 12.47 71.78 13.43Q72.22 14.40 72.22 15.46L72.22 15.46Q72.22 17.16 71.23 18.24Q70.24 19.32 68.63 19.32L68.63 19.32Q67.02 19.32 66.13 18.52Q65.23 17.71 65.23 16.38L65.23 16.38Q65.23 15.09 65.80 14.24Q66.38 13.39 67.25 12.79L67.25 12.79Q66.61 12.60 65.96 12.83L65.96 12.83Q65.09 12.97 64.31 13.55Q63.53 14.12 62.97 14.97Q62.42 15.82 62.10 16.81Q61.78 17.80 61.78 18.72L61.78 18.72L61.78 30.91Q61.78 33.12 62.86 33.90Q63.94 34.68 66.10 34.68L66.10 34.68L66.10 35.65Q65.04 35.60 63.02 35.53Q61.00 35.47 58.79 35.47L58.79 35.47Q56.95 35.47 55.06 35.53Q53.18 35.60 52.21 35.65L52.21 35.65L52.21 34.68Q53.82 34.68 54.49 33.99Q55.15 33.30 55.15 31.37L55.15 31.37L55.15 16.88Q55.15 14.81 54.53 13.82Q53.91 12.83 52.21 12.83L52.21 12.83L52.21 11.87Q53.68 12.01 55.06 12.01L55.06 12.01Q56.99 12.01 58.67 11.84Q60.35 11.68 61.78 11.36L61.78 11.36L61.78 15.64Q62.33 14.40 63.25 13.39Q64.17 12.37 65.37 11.80Q66.56 11.22 68.03 11.22ZM85.56 11.22L85.56 11.22Q89.61 11.22 91.91 13.62Q94.21 16.01 94.21 21.44L94.21 21.44L79.07 21.44L78.98 20.56L88.41 20.56Q88.46 18.31 88.14 16.40Q87.81 14.49 87.12 13.34Q86.43 12.19 85.28 12.19L85.28 12.19Q83.67 12.19 82.55 14.21Q81.42 16.24 81.19 20.93L81.19 20.93L81.33 21.21Q81.28 21.76 81.26 22.36Q81.24 22.95 81.24 23.60L81.24 23.60Q81.24 26.77 82.13 28.75Q83.03 30.73 84.41 31.63Q85.79 32.52 87.22 32.52L87.22 32.52Q88.18 32.52 89.22 32.22Q90.25 31.92 91.31 31.12Q92.37 30.31 93.29 28.84L93.29 28.84L94.12 29.12Q93.56 30.87 92.37 32.52Q91.17 34.18 89.33 35.24Q87.49 36.29 84.92 36.29L84.92 36.29Q81.79 36.29 79.40 34.96Q77.00 33.63 75.65 30.91Q74.29 28.20 74.29 24.01L74.29 24.01Q74.29 19.73 75.74 16.88Q77.19 14.03 79.74 12.63Q82.29 11.22 85.56 11.22ZM113.99 11.22L113.99 11.22Q115.92 11.22 117.14 11.71Q118.36 12.19 119.05 13.02L119.05 13.02Q119.78 13.89 120.13 15.27Q120.47 16.65 120.47 19.00L120.47 19.00L120.47 31.37Q120.47 33.30 121.14 33.99Q121.81 34.68 123.42 34.68L123.42 34.68L123.42 35.65Q122.54 35.60 120.80 35.53Q119.05 35.47 117.35 35.47L117.35 35.47Q115.60 35.47 113.92 35.53Q112.24 35.60 111.37 35.65L111.37 35.65L111.37 34.68Q112.75 34.68 113.30 33.99Q113.85 33.30 113.85 31.37L113.85 31.37L113.85 17.07Q113.85 15.92 113.62 15.06Q113.39 14.21 112.79 13.73Q112.19 13.25 111.00 13.25L111.00 13.25Q109.76 13.25 108.72 13.94Q107.69 14.63 107.06 15.85Q106.44 17.07 106.44 18.58L106.44 18.58L106.44 31.37Q106.44 33.30 107.02 33.99Q107.59 34.68 108.93 34.68L108.93 34.68L108.93 35.65Q108.10 35.60 106.51 35.53Q104.93 35.47 103.22 35.47L103.22 35.47Q101.48 35.47 99.64 35.53Q97.80 35.60 96.88 35.65L96.88 35.65L96.88 34.68Q98.49 34.68 99.15 33.99Q99.82 33.30 99.82 31.37L99.82 31.37L99.82 16.88Q99.82 14.81 99.20 13.82Q98.58 12.83 96.88 12.83L96.88 12.83L96.88 11.87Q98.35 12.01 99.73 12.01L99.73 12.01Q101.66 12.01 103.34 11.84Q105.02 11.68 106.44 11.36L106.44 11.36L106.44 15.50Q107.59 13.16 109.57 12.19Q111.55 11.22 113.99 11.22ZM134.46 4.32L134.46 4.32L134.46 11.87L139.89 11.87L139.89 12.79L134.46 12.79L134.46 31.37Q134.46 32.75 134.96 33.33Q135.47 33.90 136.48 33.90L136.48 33.90Q137.31 33.90 138.14 33.28Q138.97 32.66 139.61 31.14L139.61 31.14L140.39 31.56Q139.66 33.63 138.16 34.96Q136.67 36.29 134.09 36.29L134.09 36.29Q132.57 36.29 131.42 35.90Q130.27 35.51 129.49 34.73L129.49 34.73Q128.48 33.72 128.16 32.22Q127.83 30.73 127.83 28.34L127.83 28.34L127.83 12.79L123.97 12.79L123.97 11.87L127.83 11.87L127.83 5.80Q129.77 5.80 131.40 5.45Q133.03 5.11 134.46 4.32ZM147.29 0L147.29 0Q149.22 0 150.35 0.94Q151.48 1.89 151.48 3.54L151.48 3.54Q151.48 5.20 150.35 6.14Q149.22 7.08 147.29 7.08L147.29 7.08Q145.36 7.08 144.23 6.14Q143.11 5.20 143.11 3.54L143.11 3.54Q143.11 1.89 144.23 0.94Q145.36 0 147.29 0ZM150.88 11.36L150.88 11.36L150.88 31.37Q150.88 33.30 151.55 33.99Q152.21 34.68 153.82 34.68L153.82 34.68L153.82 35.65Q153.00 35.60 151.25 35.53Q149.50 35.47 147.71 35.47L147.71 35.47Q145.91 35.47 144.07 35.53Q142.23 35.60 141.31 35.65L141.31 35.65L141.31 34.68Q142.92 34.68 143.59 33.99Q144.26 33.30 144.26 31.37L144.26 31.37L144.26 16.88Q144.26 14.81 143.63 13.82Q143.01 12.83 141.31 12.83L141.31 12.83L141.31 11.87Q142.78 12.01 144.16 12.01L144.16 12.01Q146.10 12.01 147.78 11.84Q149.45 11.68 150.88 11.36ZM172.91 11.22L172.91 11.22Q174.85 11.22 176.06 11.71Q177.28 12.19 177.97 13.02L177.97 13.02Q178.71 13.89 179.06 15.27Q179.40 16.65 179.40 19.00L179.40 19.00L179.40 31.37Q179.40 33.30 180.07 33.99Q180.73 34.68 182.34 34.68L182.34 34.68L182.34 35.65Q181.47 35.60 179.72 35.53Q177.97 35.47 176.27 35.47L176.27 35.47Q174.52 35.47 172.84 35.53Q171.17 35.60 170.29 35.65L170.29 35.65L170.29 34.68Q171.67 34.68 172.22 33.99Q172.78 33.30 172.78 31.37L172.78 31.37L172.78 17.07Q172.78 15.92 172.55 15.06Q172.32 14.21 171.72 13.73Q171.12 13.25 169.92 13.25L169.92 13.25Q168.68 13.25 167.65 13.94Q166.61 14.63 165.99 15.85Q165.37 17.07 165.37 18.58L165.37 18.58L165.37 31.37Q165.37 33.30 165.94 33.99Q166.52 34.68 167.85 34.68L167.85 34.68L167.85 35.65Q167.03 35.60 165.44 35.53Q163.85 35.47 162.15 35.47L162.15 35.47Q160.40 35.47 158.56 35.53Q156.72 35.60 155.80 35.65L155.80 35.65L155.80 34.68Q157.41 34.68 158.08 33.99Q158.75 33.30 158.75 31.37L158.75 31.37L158.75 16.88Q158.75 14.81 158.13 13.82Q157.50 12.83 155.80 12.83L155.80 12.83L155.80 11.87Q157.27 12.01 158.65 12.01L158.65 12.01Q160.59 12.01 162.27 11.84Q163.94 11.68 165.37 11.36L165.37 11.36L165.37 15.50Q166.52 13.16 168.50 12.19Q170.48 11.22 172.91 11.22ZM195.91 11.22L195.91 11.22Q199.27 11.22 201.80 12.47Q204.33 13.71 205.76 16.47Q207.18 19.23 207.18 23.78L207.18 23.78Q207.18 28.34 205.76 31.07Q204.33 33.81 201.80 35.05Q199.27 36.29 195.91 36.29L195.91 36.29Q192.65 36.29 190.09 35.05Q187.54 33.81 186.09 31.07Q184.64 28.34 184.64 23.78L184.64 23.78Q184.64 19.23 186.09 16.47Q187.54 13.71 190.09 12.47Q192.65 11.22 195.91 11.22ZM195.91 12.14L195.91 12.14Q194.07 12.14 192.83 14.88Q191.59 17.62 191.59 23.78L191.59 23.78Q191.59 29.95 192.83 32.66Q194.07 35.37 195.91 35.37L195.91 35.37Q197.80 35.37 199.02 32.66Q200.24 29.95 200.24 23.78L200.24 23.78Q200.24 17.62 199.02 14.88Q197.80 12.14 195.91 12.14Z"></path></g></svg><!----></svg>